<?xml version="1.0" encoding="UTF-8"?>
<!DOCTYPE svg PUBLIC "-//W3C//DTD SVG 1.1//EN" "http://www.w3.org/Graphics/SVG/1.1/DTD/svg11.dtd">
<svg xmlns="http://www.w3.org/2000/svg" xmlns:xlink="http://www.w3.org/1999/xlink" xml:space="preserve" width="6.82666in" height="6.82666in" style="shape-rendering:geometricPrecision; text-rendering:geometricPrecision; image-rendering:optimizeQuality; fill-rule:evenodd; clip-rule:evenodd" viewBox="0 0 6.82666 6.82666">
 <defs>
  <style type="text/css">
   <![CDATA[
    .fil0 {fill:#1976D2}
    .fil1 {fill:#1B66B0}
    .fil2 {fill:white}
   ]]>
  </style>
 </defs>
 <g id="Layer_x0020_1">
  
  <path class="fil0" d="M6.82666 3.41332c0,1.88506 -1.52827,3.41336 -3.41333,3.41336 -1.88506,0 -3.41333,-1.5283 -3.41333,-3.41336 0,-1.88506 1.52828,-3.41333 3.41333,-3.41333 1.88506,0 3.41333,1.52828 3.41333,3.41333z" style="fill: #1976D2;"/>
  <path class="fil1" d="M6.35917 3.41332c0,1.62687 -1.31896,2.94584 -2.94583,2.94584 -1.62688,0 -2.94583,-1.31897 -2.94583,-2.94584 0,-1.62687 1.31896,-2.94583 2.94583,-2.94583 1.62687,0 2.94583,1.31895 2.94583,2.94583z" style="fill: #1B66B0;"/>
  <path class="fil2" d="M4.19658 3.51299l-0.546957 0 0 2.00372 -0.82865 0 0 -2.00372 -0.394118 0 0 -0.704406 0.394118 0 0 -0.45565c0,-0.325795 0.154697,-0.83622 0.836161,-0.83622l0.613618 0.00265354 0 0.683575 -0.445252 0c-0.0731693,0 -0.175878,0.0365512 -0.175878,0.19187l0 0.414602 0.619563 0 -0.0726063 0.703575z" style="fill: white;"/>
 </g>

	<metadata>
		<rdf:RDF xmlns:rdf="http://www.w3.org/1999/02/22-rdf-syntax-ns#" xmlns:rdfs="http://www.w3.org/2000/01/rdf-schema#" xmlns:dc="http://purl.org/dc/elements/1.1/">
			<rdf:Description about="https://iconscout.com/legal#licenses" dc:title="2 - Facebook" dc:description="2 - Facebook" dc:publisher="Iconscout" dc:date="2017-05-17" dc:format="image/svg+xml" dc:language="en">
				<dc:creator>
					<rdf:Bag>
						<rdf:li>Virtual Design</rdf:li>
					</rdf:Bag>
				</dc:creator>
			</rdf:Description>
		</rdf:RDF>
    </metadata></svg>
