<?xml version="1.0" encoding="UTF-8"?>
<!DOCTYPE svg PUBLIC "-//W3C//DTD SVG 1.1//EN" "http://www.w3.org/Graphics/SVG/1.1/DTD/svg11.dtd">
<svg xmlns="http://www.w3.org/2000/svg" xmlns:xlink="http://www.w3.org/1999/xlink" xml:space="preserve" width="6.82666in" height="6.82666in" style="shape-rendering:geometricPrecision; text-rendering:geometricPrecision; image-rendering:optimizeQuality; fill-rule:evenodd; clip-rule:evenodd" viewBox="0 0 6.82666 6.82666">
 <defs>
  <style type="text/css">
   <![CDATA[
    .fil1 {fill:#26A7B7}
    .fil0 {fill:#26C6DA}
    .fil2 {fill:white}
   ]]>
  </style>
 </defs>
 <g id="Layer_x0020_1">
  
  <path class="fil0" d="M6.82666 3.41332c0,1.88506 -1.52827,3.41335 -3.41333,3.41335 -1.88506,0 -3.41333,-1.52829 -3.41333,-3.41335 0,-1.88505 1.52828,-3.41332 3.41333,-3.41332 1.88506,0 3.41333,1.52827 3.41333,3.41332z" style="fill: #26C6DA;"/>
  <path class="fil1" d="M6.35917 3.41332c0,1.62687 -1.31896,2.94584 -2.94583,2.94584 -1.62688,0 -2.94583,-1.31897 -2.94583,-2.94584 0,-1.62687 1.31896,-2.94583 2.94583,-2.94583 1.62687,0 2.94583,1.31895 2.94583,2.94583z" style="fill: #26A7B7;"/>
  <path class="fil2" d="M5.49009 2.3776c-0.147055,0.065189 -0.305406,0.109406 -0.47126,0.129142 0.169453,-0.101665 0.299421,-0.262402 0.361008,-0.453976 -0.158654,0.0938819 -0.334398,0.16228 -0.521224,0.199079 -0.149701,-0.159587 -0.363071,-0.259126 -0.599165,-0.259126 -0.45337,0 -0.820579,0.367598 -0.820579,0.820579 0,0.0642559 0.00711024,0.127079 0.021185,0.187126 -0.681961,-0.0343504 -1.28679,-0.361028 -1.69143,-0.857681 -0.0708268,0.121335 -0.111138,0.262335 -0.111138,0.412661 0,0.284827 0.144882,0.536122 0.364846,0.683177 -0.1345,-0.00420866 -0.260886,-0.041248 -0.371744,-0.102835 0,0.00359843 0,0.0068937 0,0.0104961 0,0.397437 0.28298,0.72915 0.658323,0.804508 -0.0687008,0.0188228 -0.141303,0.0289921 -0.216055,0.0289921 -0.0528504,0 -0.104268,-0.00511811 -0.154535,-0.0146811 0.104657,0.326051 0.407697,0.563295 0.766882,0.569866 -0.280921,0.220244 -0.634752,0.351142 -1.01935,0.351142 -0.0664016,0 -0.131807,-0.00357874 -0.19576,-0.0113228 0.363091,0.232799 0.794343,0.368748 1.2578,0.368748 1.5095,0 2.3352,-1.25067 2.3352,-2.33511 0,-0.035563 -0.000909449,-0.0708465 -0.00236614,-0.10611 0.160413,-0.115673 0.299421,-0.260276 0.40937,-0.424677z" style="fill: white;"/>
 </g>

	<metadata>
		<rdf:RDF xmlns:rdf="http://www.w3.org/1999/02/22-rdf-syntax-ns#" xmlns:rdfs="http://www.w3.org/2000/01/rdf-schema#" xmlns:dc="http://purl.org/dc/elements/1.1/">
			<rdf:Description about="https://iconscout.com/legal#licenses" dc:title="1 - Twitter" dc:description="1 - Twitter" dc:publisher="Iconscout" dc:date="2017-05-17" dc:format="image/svg+xml" dc:language="en">
				<dc:creator>
					<rdf:Bag>
						<rdf:li>Virtual Design</rdf:li>
					</rdf:Bag>
				</dc:creator>
			</rdf:Description>
		</rdf:RDF>
    </metadata></svg>
